<svg width="33" height="32" viewBox="0 0 33 32" fill="none" xmlns="http://www.w3.org/2000/svg">
<path d="M16.5 3C9.33187 3 3.5 8.83187 3.5 16C3.5 23.1681 9.33187 29 16.5 29C23.6681 29 29.5 23.1681 29.5 16C29.5 8.83187 23.6681 3 16.5 3ZM23.2656 11.6431L14.8656 21.6431C14.7735 21.7529 14.6588 21.8415 14.5294 21.9031C14.4 21.9647 14.2589 21.9977 14.1156 22H14.0988C13.9586 21.9999 13.82 21.9704 13.692 21.9134C13.564 21.8563 13.4494 21.773 13.3556 21.6688L9.75562 17.6688C9.6642 17.5718 9.59308 17.4575 9.54644 17.3327C9.49981 17.2078 9.4786 17.0749 9.48407 16.9417C9.48953 16.8086 9.52156 16.6778 9.57827 16.5572C9.63498 16.4366 9.71523 16.3286 9.81429 16.2394C9.91336 16.1503 10.0292 16.0818 10.1551 16.0381C10.281 15.9944 10.4144 15.9763 10.5474 15.9848C10.6804 15.9934 10.8104 16.0284 10.9296 16.0879C11.0489 16.1474 11.155 16.2301 11.2419 16.3312L14.0725 19.4762L21.7344 10.3569C21.9062 10.1582 22.1494 10.0351 22.4113 10.0142C22.6732 9.99335 22.9327 10.0764 23.1339 10.2454C23.3351 10.4143 23.4617 10.6557 23.4863 10.9172C23.5109 11.1788 23.4317 11.4395 23.2656 11.6431V11.6431Z" fill="white"/>
</svg>
