<svg width="33" height="32" viewBox="0 0 33 32" fill="none" xmlns="http://www.w3.org/2000/svg">
<path d="M16.4993 22.666C16.8771 22.666 17.1938 22.5382 17.4494 22.2827C17.7049 22.0271 17.8327 21.7105 17.8327 21.3327C17.8327 20.9549 17.7049 20.6382 17.4494 20.3827C17.1938 20.1271 16.8771 19.9993 16.4993 19.9993C16.1216 19.9993 15.8049 20.1271 15.5493 20.3827C15.2938 20.6382 15.166 20.9549 15.166 21.3327C15.166 21.7105 15.2938 22.0271 15.5493 22.2827C15.8049 22.5382 16.1216 22.666 16.4993 22.666ZM15.166 17.3327H17.8327V9.33268H15.166V17.3327ZM16.4993 29.3327C14.6549 29.3327 12.9216 28.9827 11.2993 28.2827C9.67713 27.5827 8.26602 26.6327 7.06602 25.4327C5.86602 24.2327 4.91602 22.8216 4.21602 21.1994C3.51602 19.5771 3.16602 17.8438 3.16602 15.9993C3.16602 14.1549 3.51602 12.4216 4.21602 10.7993C4.91602 9.17713 5.86602 7.76602 7.06602 6.56602C8.26602 5.36602 9.67713 4.41602 11.2993 3.71602C12.9216 3.01602 14.6549 2.66602 16.4993 2.66602C18.3438 2.66602 20.0771 3.01602 21.6994 3.71602C23.3216 4.41602 24.7327 5.36602 25.9327 6.56602C27.1327 7.76602 28.0827 9.17713 28.7827 10.7993C29.4827 12.4216 29.8327 14.1549 29.8327 15.9993C29.8327 17.8438 29.4827 19.5771 28.7827 21.1994C28.0827 22.8216 27.1327 24.2327 25.9327 25.4327C24.7327 26.6327 23.3216 27.5827 21.6994 28.2827C20.0771 28.9827 18.3438 29.3327 16.4993 29.3327Z" fill="#410002"/>
</svg>
