<svg width="16" height="16" viewBox="0 0 16 16" fill="none" xmlns="http://www.w3.org/2000/svg">
<mask id="mask0_3763_10314" style="mask-type:alpha" maskUnits="userSpaceOnUse" x="0" y="0" width="16" height="16">
<rect width="16" height="16" fill="#D9D9D9"/>
</mask>
<g mask="url(#mask0_3763_10314)">
<path d="M7.96634 11.9999C8.19967 11.9999 8.3969 11.9194 8.55801 11.7583C8.71912 11.5971 8.79967 11.3999 8.79967 11.1666C8.79967 10.9333 8.71912 10.736 8.55801 10.5749C8.3969 10.4138 8.19967 10.3333 7.96634 10.3333C7.73301 10.3333 7.53579 10.4138 7.37467 10.5749C7.21356 10.736 7.13301 10.9333 7.13301 11.1666C7.13301 11.3999 7.21356 11.5971 7.37467 11.7583C7.53579 11.9194 7.73301 11.9999 7.96634 11.9999ZM7.36634 9.43325H8.59968C8.59968 9.06659 8.64134 8.7777 8.72468 8.56659C8.80801 8.35547 9.04412 8.06659 9.43301 7.69992C9.7219 7.41103 9.94967 7.13603 10.1163 6.87492C10.283 6.61381 10.3663 6.29992 10.3663 5.93325C10.3663 5.31103 10.1386 4.83325 9.68301 4.49992C9.22745 4.16659 8.68856 3.99992 8.06634 3.99992C7.43301 3.99992 6.91912 4.16659 6.52467 4.49992C6.13023 4.83325 5.85523 5.23325 5.69967 5.69992L6.79967 6.13325C6.85523 5.93325 6.98023 5.71659 7.17467 5.48325C7.36912 5.24992 7.66634 5.13325 8.06634 5.13325C8.4219 5.13325 8.68856 5.23047 8.86634 5.42492C9.04412 5.61936 9.13301 5.83325 9.13301 6.06659C9.13301 6.28881 9.06634 6.49714 8.93301 6.69159C8.79967 6.88603 8.63301 7.06659 8.43301 7.23325C7.94412 7.66659 7.64412 7.99436 7.53301 8.21659C7.4219 8.43881 7.36634 8.84436 7.36634 9.43325ZM7.99967 14.6666C7.07745 14.6666 6.21079 14.4916 5.39967 14.1416C4.58856 13.7916 3.88301 13.3166 3.28301 12.7166C2.68301 12.1166 2.20801 11.411 1.85801 10.5999C1.50801 9.78881 1.33301 8.92214 1.33301 7.99992C1.33301 7.0777 1.50801 6.21103 1.85801 5.39992C2.20801 4.58881 2.68301 3.88325 3.28301 3.28325C3.88301 2.68325 4.58856 2.20825 5.39967 1.85825C6.21079 1.50825 7.07745 1.33325 7.99967 1.33325C8.9219 1.33325 9.78856 1.50825 10.5997 1.85825C11.4108 2.20825 12.1163 2.68325 12.7163 3.28325C13.3163 3.88325 13.7913 4.58881 14.1413 5.39992C14.4913 6.21103 14.6663 7.0777 14.6663 7.99992C14.6663 8.92214 14.4913 9.78881 14.1413 10.5999C13.7913 11.411 13.3163 12.1166 12.7163 12.7166C12.1163 13.3166 11.4108 13.7916 10.5997 14.1416C9.78856 14.4916 8.9219 14.6666 7.99967 14.6666ZM7.99967 13.3333C9.48856 13.3333 10.7497 12.8166 11.783 11.7833C12.8163 10.7499 13.333 9.48881 13.333 7.99992C13.333 6.51103 12.8163 5.24992 11.783 4.21659C10.7497 3.18325 9.48856 2.66659 7.99967 2.66659C6.51079 2.66659 5.24967 3.18325 4.21634 4.21659C3.18301 5.24992 2.66634 6.51103 2.66634 7.99992C2.66634 9.48881 3.18301 10.7499 4.21634 11.7833C5.24967 12.8166 6.51079 13.3333 7.99967 13.3333Z" fill="#435E90"/>
</g>
</svg>
