<svg width="25" height="24" viewBox="0 0 25 24" fill="none" xmlns="http://www.w3.org/2000/svg">
<path d="M21.1836 4C20.0736 3.65 18.8536 3.5 17.6836 3.5C15.7336 3.5 13.6336 3.9 12.1836 5C10.7336 3.9 8.63359 3.5 6.68359 3.5C4.73359 3.5 2.63359 3.9 1.18359 5V19.65C1.18359 19.9 1.43359 20.15 1.68359 20.15C1.78359 20.15 1.83359 20.1 1.93359 20.1C3.28359 19.45 5.23359 19 6.68359 19C8.63359 19 10.7336 19.4 12.1836 20.5C13.5336 19.65 15.9836 19 17.6836 19C19.3336 19 21.0336 19.3 22.4336 20.05C22.5336 20.1 22.5836 20.1 22.6836 20.1C22.9336 20.1 23.1836 19.85 23.1836 19.6V5C22.5836 4.55 21.9336 4.25 21.1836 4ZM21.1836 17.5C20.0836 17.15 18.8836 17 17.6836 17C15.9836 17 13.5336 17.65 12.1836 18.5V7C13.5336 6.15 15.9836 5.5 17.6836 5.5C18.8836 5.5 20.0836 5.65 21.1836 6V17.5Z" fill="white"/>
<path d="M17.6836 9.5C18.5636 9.5 19.4136 9.59 20.1836 9.76V8.24C19.3936 8.09 18.5436 8 17.6836 8C15.9836 8 14.4436 8.29 13.1836 8.83V10.49C14.3136 9.85 15.8836 9.5 17.6836 9.5Z" fill="white"/>
<path d="M13.1836 11.49V13.15C14.3136 12.51 15.8836 12.16 17.6836 12.16C18.5636 12.16 19.4136 12.25 20.1836 12.42V10.9C19.3936 10.75 18.5436 10.66 17.6836 10.66C15.9836 10.66 14.4436 10.96 13.1836 11.49Z" fill="white"/>
<path d="M17.6836 13.33C15.9836 13.33 14.4436 13.62 13.1836 14.16V15.82C14.3136 15.18 15.8836 14.83 17.6836 14.83C18.5636 14.83 19.4136 14.92 20.1836 15.09V13.57C19.3936 13.41 18.5436 13.33 17.6836 13.33Z" fill="white"/>
</svg>
