<svg width="25" height="24" viewBox="0 0 25 24" fill="none" xmlns="http://www.w3.org/2000/svg">
<path d="M9.18311 13.75C6.84311 13.75 2.18311 14.92 2.18311 17.25V19H16.1831V17.25C16.1831 14.92 11.5231 13.75 9.18311 13.75ZM4.52311 17C5.36311 16.42 7.39311 15.75 9.18311 15.75C10.9731 15.75 13.0031 16.42 13.8431 17H4.52311ZM9.18311 12C11.1131 12 12.6831 10.43 12.6831 8.5C12.6831 6.57 11.1131 5 9.18311 5C7.25311 5 5.68311 6.57 5.68311 8.5C5.68311 10.43 7.25311 12 9.18311 12ZM9.18311 7C10.0131 7 10.6831 7.67 10.6831 8.5C10.6831 9.33 10.0131 10 9.18311 10C8.35311 10 7.68311 9.33 7.68311 8.5C7.68311 7.67 8.35311 7 9.18311 7ZM16.2231 13.81C17.3831 14.65 18.1831 15.77 18.1831 17.25V19H22.1831V17.25C22.1831 15.23 18.6831 14.08 16.2231 13.81ZM15.1831 12C17.1131 12 18.6831 10.43 18.6831 8.5C18.6831 6.57 17.1131 5 15.1831 5C14.6431 5 14.1431 5.13 13.6831 5.35C14.3131 6.24 14.6831 7.33 14.6831 8.5C14.6831 9.67 14.3131 10.76 13.6831 11.65C14.1431 11.87 14.6431 12 15.1831 12Z" fill="white"/>
</svg>
