<svg width="18" height="18" viewBox="0 0 18 18" fill="none" xmlns="http://www.w3.org/2000/svg">
<path d="M3 15C2.5875 15 2.23125 14.8562 1.93125 14.5688C1.64375 14.2688 1.5 13.9125 1.5 13.5V4.5C1.5 4.0875 1.64375 3.7375 1.93125 3.45C2.23125 3.15 2.5875 3 3 3H12C12.4125 3 12.7625 3.15 13.05 3.45C13.35 3.7375 13.5 4.0875 13.5 4.5V7.875L16.5 4.875V13.125L13.5 10.125V13.5C13.5 13.9125 13.35 14.2688 13.05 14.5688C12.7625 14.8562 12.4125 15 12 15H3ZM3 13.5H12V4.5H3V13.5ZM3 13.5V4.5V13.5Z" fill="white"/>
</svg>
